<?xml version="1.0" standalone="no"?><!DOCTYPE svg PUBLIC "-//W3C//DTD SVG 1.1//EN" "http://www.w3.org/Graphics/SVG/1.1/DTD/svg11.dtd"><svg t="1567087190140" class="icon" viewBox="0 0 1024 1024" version="1.1" xmlns="http://www.w3.org/2000/svg" p-id="9295" xmlns:xlink="http://www.w3.org/1999/xlink" width="200" height="200"><defs><style type="text/css"></style></defs><path d="M421.007763 610.371149a148.926753 148.926753 0 0 1-177.832876 113.185537c-80.274712-18.066327-256.361176-194.63456-242.419994-336.033677 6.022109-60.221089 207.130436 26.587611 307.368439 44.563606a147.150231 147.150231 0 0 1 112.884431 178.284534z" fill="#7CD95D" p-id="9296"></path><path d="M611.336515 601.849865a149.348301 149.348301 0 0 1 112.914542 178.284534c-18.066327 80.485485-194.12268 257.053719-335.160471 243.082426-60.221089-6.022109 26.497279-207.762757 44.443163-308.181423a146.758794 146.758794 0 0 1 177.802766-113.185537z" fill="#4CC8FB" p-id="9297"></path><path d="M602.935673 417.633553a148.896643 148.896643 0 0 1 177.802765-113.185536c80.274712 18.066327 256.391287 194.604449 242.450105 336.033676-6.022109 60.221089-207.130436-26.587611-307.368439-44.563605a147.150231 147.150231 0 0 1-112.884431-178.284535z" fill="#FFE467" p-id="9298"></path><path d="M416.521292 422.120025a149.257969 149.257969 0 0 1-112.884432-178.254424c18.066327-80.515596 194.09257-257.053719 335.130361-243.082426 60.221089 6.022109-26.497279 207.762757-44.413053 308.151313a146.819015 146.819015 0 0 1-177.832876 113.185537z" fill="#FF8352" p-id="9299"></path></svg>